<?xml version="1.0" encoding="UTF-8" standalone="no"?>
<!DOCTYPE svg PUBLIC "-//W3C//DTD SVG 1.1//EN"
 "http://www.w3.org/Graphics/SVG/1.1/DTD/svg11.dtd">
<!-- Generated by graphviz version 2.40.1 (20161225.0304)
 -->
<!-- Title: dependencies Pages: 1 -->
<svg width="625pt" height="211pt"
 viewBox="0.00 0.00 625.00 211.00" xmlns="http://www.w3.org/2000/svg" xmlns:xlink="http://www.w3.org/1999/xlink">
<g id="graph0" class="graph" transform="scale(1 1) rotate(0) translate(4 207)">
<title>dependencies</title>
<polygon fill="#ffffff" stroke="transparent" points="-4,4 -4,-207 621,-207 621,4 -4,4"/>
<text text-anchor="start" x="287.5091" y="-42.4" font-family="sans-serif" font-weight="bold" font-size="14.00" fill="#000000">Legend</text>
<polygon fill="#ffffb3" stroke="transparent" points="74.5,-10 74.5,-30 94.5,-30 94.5,-10 74.5,-10"/>
<text text-anchor="start" x="98.129" y="-15.4" font-family="sans-serif" font-size="14.00" fill="#000000"> &#160;Declarations</text>
<polygon fill="#8dd3c7" stroke="transparent" points="187.5,-10 187.5,-30 207.5,-30 207.5,-10 187.5,-10"/>
<text text-anchor="start" x="211.2251" y="-15.4" font-family="sans-serif" font-size="14.00" fill="#000000"> &#160;Module</text>
<polygon fill="#80b1d3" stroke="transparent" points="273.5,-10 273.5,-30 293.5,-30 293.5,-10 273.5,-10"/>
<text text-anchor="start" x="297.2812" y="-15.4" font-family="sans-serif" font-size="14.00" fill="#000000"> &#160;Bootstrap</text>
<polygon fill="#fdb462" stroke="transparent" points="370.5,-10 370.5,-30 390.5,-30 390.5,-10 370.5,-10"/>
<text text-anchor="start" x="394.1732" y="-15.4" font-family="sans-serif" font-size="14.00" fill="#000000"> &#160;Providers</text>
<polygon fill="#fb8072" stroke="transparent" points="466.5,-10 466.5,-30 486.5,-30 486.5,-10 466.5,-10"/>
<text text-anchor="start" x="490.2258" y="-15.4" font-family="sans-serif" font-size="14.00" fill="#000000"> &#160;Exports</text>
<g id="clust1" class="cluster">
<title>cluster_UsersModule</title>
<polygon fill="none" stroke="#000000" stroke-dasharray="1,5" points="8,-70 8,-195 609,-195 609,-70 8,-70"/>
</g>
<g id="clust2" class="cluster">
<title>cluster_UsersModule_declarations</title>
<polygon fill="none" stroke="#000000" points="16,-78 16,-130 601,-130 601,-78 16,-78"/>
</g>
<!-- EditUserComponent -->
<g id="node1" class="node">
<title>EditUserComponent</title>
<polygon fill="#ffffb3" stroke="#000000" points="592.5926,-122 461.4074,-122 461.4074,-86 592.5926,-86 592.5926,-122"/>
<text text-anchor="middle" x="527" y="-99.8" font-family="Times,serif" font-size="14.00" fill="#000000">EditUserComponent</text>
</g>
<!-- UsersModule -->
<g id="node5" class="node">
<title>UsersModule</title>
<polygon fill="#8dd3c7" stroke="#000000" points="350.9218,-187 347.9218,-191 326.9218,-191 323.9218,-187 259.0782,-187 259.0782,-151 350.9218,-151 350.9218,-187"/>
<text text-anchor="middle" x="305" y="-164.8" font-family="Times,serif" font-size="14.00" fill="#000000">UsersModule</text>
</g>
<!-- EditUserComponent&#45;&gt;UsersModule -->
<g id="edge1" class="edge">
<title>EditUserComponent&#45;&gt;UsersModule</title>
<path fill="none" stroke="#000000" d="M527,-122.1061C527,-141.3391 527,-169 527,-169 527,-169 360.7294,-169 360.7294,-169"/>
<polygon fill="#000000" stroke="#000000" points="360.7294,-165.5001 350.7294,-169 360.7293,-172.5001 360.7294,-165.5001"/>
</g>
<!-- NavbarComponent -->
<g id="node2" class="node">
<title>NavbarComponent</title>
<polygon fill="#ffffb3" stroke="#000000" points="443.0297,-122 320.9703,-122 320.9703,-86 443.0297,-86 443.0297,-122"/>
<text text-anchor="middle" x="382" y="-99.8" font-family="Times,serif" font-size="14.00" fill="#000000">NavbarComponent</text>
</g>
<!-- NavbarComponent&#45;&gt;UsersModule -->
<g id="edge2" class="edge">
<title>NavbarComponent&#45;&gt;UsersModule</title>
<path fill="none" stroke="#000000" d="M335.723,-122.1061C335.723,-122.1061 335.723,-140.991 335.723,-140.991"/>
<polygon fill="#000000" stroke="#000000" points="332.2231,-140.9909 335.723,-150.991 339.2231,-140.991 332.2231,-140.9909"/>
</g>
<!-- UserDetailsComponent -->
<g id="node3" class="node">
<title>UserDetailsComponent</title>
<polygon fill="#ffffb3" stroke="#000000" points="302.9116,-122 155.0884,-122 155.0884,-86 302.9116,-86 302.9116,-122"/>
<text text-anchor="middle" x="229" y="-99.8" font-family="Times,serif" font-size="14.00" fill="#000000">UserDetailsComponent</text>
</g>
<!-- UserDetailsComponent&#45;&gt;UsersModule -->
<g id="edge3" class="edge">
<title>UserDetailsComponent&#45;&gt;UsersModule</title>
<path fill="none" stroke="#000000" d="M280.9976,-122.1061C280.9976,-122.1061 280.9976,-140.991 280.9976,-140.991"/>
<polygon fill="#000000" stroke="#000000" points="277.4976,-140.9909 280.9976,-150.991 284.4976,-140.991 277.4976,-140.9909"/>
</g>
<!-- UsersComponent -->
<g id="node4" class="node">
<title>UsersComponent</title>
<polygon fill="#ffffb3" stroke="#000000" points="137.7036,-122 24.2964,-122 24.2964,-86 137.7036,-86 137.7036,-122"/>
<text text-anchor="middle" x="81" y="-99.8" font-family="Times,serif" font-size="14.00" fill="#000000">UsersComponent</text>
</g>
<!-- UsersComponent&#45;&gt;UsersModule -->
<g id="edge4" class="edge">
<title>UsersComponent&#45;&gt;UsersModule</title>
<path fill="none" stroke="#000000" d="M81,-122.1061C81,-141.3391 81,-169 81,-169 81,-169 249.1297,-169 249.1297,-169"/>
<polygon fill="#000000" stroke="#000000" points="249.1298,-172.5001 259.1297,-169 249.1297,-165.5001 249.1298,-172.5001"/>
</g>
</g>
</svg>
