<?xml version="1.0" encoding="UTF-8" standalone="no"?>
<!DOCTYPE svg PUBLIC "-//W3C//DTD SVG 1.1//EN"
 "http://www.w3.org/Graphics/SVG/1.1/DTD/svg11.dtd">
<!-- Generated by graphviz version 2.40.1 (20161225.0304)
 -->
<!-- Title: dependencies Pages: 1 -->
<svg width="997pt" height="211pt"
 viewBox="0.00 0.00 997.00 211.00" xmlns="http://www.w3.org/2000/svg" xmlns:xlink="http://www.w3.org/1999/xlink">
<g id="graph0" class="graph" transform="scale(1 1) rotate(0) translate(4 207)">
<title>dependencies</title>
<polygon fill="#ffffff" stroke="transparent" points="-4,4 -4,-207 993,-207 993,4 -4,4"/>
<text text-anchor="start" x="473.5091" y="-42.4" font-family="sans-serif" font-weight="bold" font-size="14.00" fill="#000000">Legend</text>
<polygon fill="#ffffb3" stroke="transparent" points="260.5,-10 260.5,-30 280.5,-30 280.5,-10 260.5,-10"/>
<text text-anchor="start" x="284.129" y="-15.4" font-family="sans-serif" font-size="14.00" fill="#000000"> &#160;Declarations</text>
<polygon fill="#8dd3c7" stroke="transparent" points="373.5,-10 373.5,-30 393.5,-30 393.5,-10 373.5,-10"/>
<text text-anchor="start" x="397.2251" y="-15.4" font-family="sans-serif" font-size="14.00" fill="#000000"> &#160;Module</text>
<polygon fill="#80b1d3" stroke="transparent" points="459.5,-10 459.5,-30 479.5,-30 479.5,-10 459.5,-10"/>
<text text-anchor="start" x="483.2812" y="-15.4" font-family="sans-serif" font-size="14.00" fill="#000000"> &#160;Bootstrap</text>
<polygon fill="#fdb462" stroke="transparent" points="556.5,-10 556.5,-30 576.5,-30 576.5,-10 556.5,-10"/>
<text text-anchor="start" x="580.1732" y="-15.4" font-family="sans-serif" font-size="14.00" fill="#000000"> &#160;Providers</text>
<polygon fill="#fb8072" stroke="transparent" points="652.5,-10 652.5,-30 672.5,-30 672.5,-10 652.5,-10"/>
<text text-anchor="start" x="676.2258" y="-15.4" font-family="sans-serif" font-size="14.00" fill="#000000"> &#160;Exports</text>
<g id="clust1" class="cluster">
<title>cluster_SampleModule</title>
<polygon fill="none" stroke="#000000" stroke-dasharray="1,5" points="8,-70 8,-195 981,-195 981,-70 8,-70"/>
</g>
<g id="clust2" class="cluster">
<title>cluster_SampleModule_declarations</title>
<polygon fill="none" stroke="#000000" points="190,-78 190,-130 973,-130 973,-78 190,-78"/>
</g>
<g id="clust8" class="cluster">
<title>cluster_SampleModule_imports</title>
<polygon fill="none" stroke="#000000" points="16,-78 16,-130 182,-130 182,-78 16,-78"/>
</g>
<!-- DemoComponent -->
<g id="node1" class="node">
<title>DemoComponent</title>
<polygon fill="#ffffb3" stroke="#000000" points="964.5451,-122 849.4549,-122 849.4549,-86 964.5451,-86 964.5451,-122"/>
<text text-anchor="middle" x="907" y="-99.8" font-family="Times,serif" font-size="14.00" fill="#000000">DemoComponent</text>
</g>
<!-- SampleModule -->
<g id="node6" class="node">
<title>SampleModule</title>
<polygon fill="#8dd3c7" stroke="#000000" points="516.5438,-187 513.5438,-191 492.5438,-191 489.5438,-187 415.4562,-187 415.4562,-151 516.5438,-151 516.5438,-187"/>
<text text-anchor="middle" x="466" y="-164.8" font-family="Times,serif" font-size="14.00" fill="#000000">SampleModule</text>
</g>
<!-- DemoComponent&#45;&gt;SampleModule -->
<g id="edge1" class="edge">
<title>DemoComponent&#45;&gt;SampleModule</title>
<path fill="none" stroke="#000000" d="M907,-122.2843C907,-143.3211 907,-175 907,-175 907,-175 526.5883,-175 526.5883,-175"/>
<polygon fill="#000000" stroke="#000000" points="526.5883,-171.5001 516.5883,-175 526.5883,-178.5001 526.5883,-171.5001"/>
</g>
<!-- DialogOverviewExampleDialog -->
<g id="node2" class="node">
<title>DialogOverviewExampleDialog</title>
<polygon fill="#ffffb3" stroke="#000000" points="831.6615,-122 634.3385,-122 634.3385,-86 831.6615,-86 831.6615,-122"/>
<text text-anchor="middle" x="733" y="-99.8" font-family="Times,serif" font-size="14.00" fill="#000000">DialogOverviewExampleDialog</text>
</g>
<!-- DialogOverviewExampleDialog&#45;&gt;SampleModule -->
<g id="edge2" class="edge">
<title>DialogOverviewExampleDialog&#45;&gt;SampleModule</title>
<path fill="none" stroke="#000000" d="M733,-122.0225C733,-139.3734 733,-163 733,-163 733,-163 526.8491,-163 526.8491,-163"/>
<polygon fill="#000000" stroke="#000000" points="526.8492,-159.5001 516.8491,-163 526.8491,-166.5001 526.8492,-159.5001"/>
</g>
<!-- ModelDemoComponent -->
<g id="node3" class="node">
<title>ModelDemoComponent</title>
<polygon fill="#ffffb3" stroke="#000000" points="616.094,-122 463.906,-122 463.906,-86 616.094,-86 616.094,-122"/>
<text text-anchor="middle" x="540" y="-99.8" font-family="Times,serif" font-size="14.00" fill="#000000">ModelDemoComponent</text>
</g>
<!-- ModelDemoComponent&#45;&gt;SampleModule -->
<g id="edge3" class="edge">
<title>ModelDemoComponent&#45;&gt;SampleModule</title>
<path fill="none" stroke="#000000" d="M490.3622,-122.1061C490.3622,-122.1061 490.3622,-140.991 490.3622,-140.991"/>
<polygon fill="#000000" stroke="#000000" points="486.8623,-140.9909 490.3622,-150.991 493.8623,-140.991 486.8623,-140.9909"/>
</g>
<!-- PracComponent -->
<g id="node4" class="node">
<title>PracComponent</title>
<polygon fill="#ffffb3" stroke="#000000" points="446.205,-122 339.795,-122 339.795,-86 446.205,-86 446.205,-122"/>
<text text-anchor="middle" x="393" y="-99.8" font-family="Times,serif" font-size="14.00" fill="#000000">PracComponent</text>
</g>
<!-- PracComponent&#45;&gt;SampleModule -->
<g id="edge4" class="edge">
<title>PracComponent&#45;&gt;SampleModule</title>
<path fill="none" stroke="#000000" d="M430.6655,-122.1061C430.6655,-122.1061 430.6655,-140.991 430.6655,-140.991"/>
<polygon fill="#000000" stroke="#000000" points="427.1656,-140.9909 430.6655,-150.991 434.1656,-140.991 427.1656,-140.9909"/>
</g>
<!-- SampleComponent -->
<g id="node5" class="node">
<title>SampleComponent</title>
<polygon fill="#ffffb3" stroke="#000000" points="321.8258,-122 198.1742,-122 198.1742,-86 321.8258,-86 321.8258,-122"/>
<text text-anchor="middle" x="260" y="-99.8" font-family="Times,serif" font-size="14.00" fill="#000000">SampleComponent</text>
</g>
<!-- SampleComponent&#45;&gt;SampleModule -->
<g id="edge5" class="edge">
<title>SampleComponent&#45;&gt;SampleModule</title>
<path fill="none" stroke="#000000" d="M260,-122.0225C260,-139.3734 260,-163 260,-163 260,-163 405.3429,-163 405.3429,-163"/>
<polygon fill="#000000" stroke="#000000" points="405.3429,-166.5001 415.3429,-163 405.3429,-159.5001 405.3429,-166.5001"/>
</g>
<!-- MaterialModuleModule -->
<g id="node7" class="node">
<title>MaterialModuleModule</title>
<polygon fill="#8dd3c7" stroke="#000000" points="174.0212,-122 171.0212,-126 150.0212,-126 147.0212,-122 23.9788,-122 23.9788,-86 174.0212,-86 174.0212,-122"/>
<text text-anchor="middle" x="99" y="-99.8" font-family="Times,serif" font-size="14.00" fill="#000000">MaterialModuleModule</text>
</g>
<!-- MaterialModuleModule&#45;&gt;SampleModule -->
<g id="edge6" class="edge">
<title>MaterialModuleModule&#45;&gt;SampleModule</title>
<path fill="none" stroke="#000000" d="M99,-122.2843C99,-143.3211 99,-175 99,-175 99,-175 405.3555,-175 405.3555,-175"/>
<polygon fill="#000000" stroke="#000000" points="405.3556,-178.5001 415.3555,-175 405.3555,-171.5001 405.3556,-178.5001"/>
</g>
</g>
</svg>
