<?xml version="1.0" encoding="UTF-8" standalone="no"?>
<!DOCTYPE svg PUBLIC "-//W3C//DTD SVG 1.1//EN"
 "http://www.w3.org/Graphics/SVG/1.1/DTD/svg11.dtd">
<!-- Generated by graphviz version 2.40.1 (20161225.0304)
 -->
<!-- Title: dependencies Pages: 1 -->
<svg width="1719pt" height="284pt"
 viewBox="0.00 0.00 1719.00 284.00" xmlns="http://www.w3.org/2000/svg" xmlns:xlink="http://www.w3.org/1999/xlink">
<g id="graph0" class="graph" transform="scale(1 1) rotate(0) translate(4 280)">
<title>dependencies</title>
<polygon fill="#ffffff" stroke="transparent" points="-4,4 -4,-280 1715,-280 1715,4 -4,4"/>
<text text-anchor="start" x="834.5091" y="-42.4" font-family="sans-serif" font-weight="bold" font-size="14.00" fill="#000000">Legend</text>
<polygon fill="#ffffb3" stroke="transparent" points="621.5,-10 621.5,-30 641.5,-30 641.5,-10 621.5,-10"/>
<text text-anchor="start" x="645.129" y="-15.4" font-family="sans-serif" font-size="14.00" fill="#000000"> &#160;Declarations</text>
<polygon fill="#8dd3c7" stroke="transparent" points="734.5,-10 734.5,-30 754.5,-30 754.5,-10 734.5,-10"/>
<text text-anchor="start" x="758.2251" y="-15.4" font-family="sans-serif" font-size="14.00" fill="#000000"> &#160;Module</text>
<polygon fill="#80b1d3" stroke="transparent" points="820.5,-10 820.5,-30 840.5,-30 840.5,-10 820.5,-10"/>
<text text-anchor="start" x="844.2812" y="-15.4" font-family="sans-serif" font-size="14.00" fill="#000000"> &#160;Bootstrap</text>
<polygon fill="#fdb462" stroke="transparent" points="917.5,-10 917.5,-30 937.5,-30 937.5,-10 917.5,-10"/>
<text text-anchor="start" x="941.1732" y="-15.4" font-family="sans-serif" font-size="14.00" fill="#000000"> &#160;Providers</text>
<polygon fill="#fb8072" stroke="transparent" points="1013.5,-10 1013.5,-30 1033.5,-30 1033.5,-10 1013.5,-10"/>
<text text-anchor="start" x="1037.2258" y="-15.4" font-family="sans-serif" font-size="14.00" fill="#000000"> &#160;Exports</text>
<g id="clust1" class="cluster">
<title>cluster_AppModule</title>
<polygon fill="none" stroke="#000000" stroke-dasharray="1,5" points="8,-70 8,-268 1703,-268 1703,-70 8,-70"/>
</g>
<g id="clust2" class="cluster">
<title>cluster_AppModule_declarations</title>
<polygon fill="none" stroke="#000000" points="456,-78 456,-130 1695,-130 1695,-78 456,-78"/>
</g>
<g id="clust13" class="cluster">
<title>cluster_AppModule_bootstrap</title>
<polygon fill="none" stroke="#000000" points="853,-208 853,-260 977,-260 977,-208 853,-208"/>
</g>
<g id="clust14" class="cluster">
<title>cluster_AppModule_providers</title>
<polygon fill="none" stroke="#000000" points="16,-78 16,-130 448,-130 448,-78 16,-78"/>
</g>
<!-- AddUserComponent -->
<g id="node1" class="node">
<title>AddUserComponent</title>
<polygon fill="#ffffb3" stroke="#000000" points="1686.8655,-122 1555.1345,-122 1555.1345,-86 1686.8655,-86 1686.8655,-122"/>
<text text-anchor="middle" x="1621" y="-99.8" font-family="Times,serif" font-size="14.00" fill="#000000">AddUserComponent</text>
</g>
<!-- AppModule -->
<g id="node9" class="node">
<title>AppModule</title>
<polygon fill="#8dd3c7" stroke="#000000" points="956.6571,-187 953.6571,-191 932.6571,-191 929.6571,-187 873.3429,-187 873.3429,-151 956.6571,-151 956.6571,-187"/>
<text text-anchor="middle" x="915" y="-164.8" font-family="Times,serif" font-size="14.00" fill="#000000">AppModule</text>
</g>
<!-- AddUserComponent&#45;&gt;AppModule -->
<g id="edge1" class="edge">
<title>AddUserComponent&#45;&gt;AppModule</title>
<path fill="none" stroke="#000000" d="M1621,-122.2479C1621,-145.0179 1621,-181 1621,-181 1621,-181 966.7881,-181 966.7881,-181"/>
<polygon fill="#000000" stroke="#000000" points="966.7882,-177.5001 956.7881,-181 966.7881,-184.5001 966.7882,-177.5001"/>
</g>
<!-- AppComponent -->
<g id="node2" class="node">
<title>AppComponent</title>
<polygon fill="#ffffb3" stroke="#000000" points="1536.9399,-122 1431.0601,-122 1431.0601,-86 1536.9399,-86 1536.9399,-122"/>
<text text-anchor="middle" x="1484" y="-99.8" font-family="Times,serif" font-size="14.00" fill="#000000">AppComponent</text>
</g>
<!-- AppComponent&#45;&gt;AppModule -->
<g id="edge2" class="edge">
<title>AppComponent&#45;&gt;AppModule</title>
<path fill="none" stroke="#000000" d="M1484,-122.2843C1484,-143.3211 1484,-175 1484,-175 1484,-175 966.8399,-175 966.8399,-175"/>
<polygon fill="#000000" stroke="#000000" points="966.84,-171.5001 956.8399,-175 966.8399,-178.5001 966.84,-171.5001"/>
</g>
<!-- AutoCompleteFilterComponent -->
<g id="node3" class="node">
<title>AutoCompleteFilterComponent</title>
<polygon fill="#ffffb3" stroke="#000000" points="1413.0968,-122 1218.9032,-122 1218.9032,-86 1413.0968,-86 1413.0968,-122"/>
<text text-anchor="middle" x="1316" y="-99.8" font-family="Times,serif" font-size="14.00" fill="#000000">AutoCompleteFilterComponent</text>
</g>
<!-- AutoCompleteFilterComponent&#45;&gt;AppModule -->
<g id="edge3" class="edge">
<title>AutoCompleteFilterComponent&#45;&gt;AppModule</title>
<path fill="none" stroke="#000000" d="M1316,-122.1061C1316,-141.3391 1316,-169 1316,-169 1316,-169 966.7792,-169 966.7792,-169"/>
<polygon fill="#000000" stroke="#000000" points="966.7793,-165.5001 956.7792,-169 966.7792,-172.5001 966.7793,-165.5001"/>
</g>
<!-- FilterPipe -->
<g id="node4" class="node">
<title>FilterPipe</title>
<polygon fill="#ffffb3" stroke="#000000" points="1200.7177,-122 1129.2823,-122 1129.2823,-86 1200.7177,-86 1200.7177,-122"/>
<text text-anchor="middle" x="1165" y="-99.8" font-family="Times,serif" font-size="14.00" fill="#000000">FilterPipe</text>
</g>
<!-- FilterPipe&#45;&gt;AppModule -->
<g id="edge4" class="edge">
<title>FilterPipe&#45;&gt;AppModule</title>
<path fill="none" stroke="#000000" d="M1165,-122.0225C1165,-139.3734 1165,-163 1165,-163 1165,-163 966.8444,-163 966.8444,-163"/>
<polygon fill="#000000" stroke="#000000" points="966.8444,-159.5001 956.8444,-163 966.8443,-166.5001 966.8444,-159.5001"/>
</g>
<!-- HeaderComponent -->
<g id="node5" class="node">
<title>HeaderComponent</title>
<polygon fill="#ffffb3" stroke="#000000" points="1111.7437,-122 990.2563,-122 990.2563,-86 1111.7437,-86 1111.7437,-122"/>
<text text-anchor="middle" x="1051" y="-99.8" font-family="Times,serif" font-size="14.00" fill="#000000">HeaderComponent</text>
</g>
<!-- HeaderComponent&#45;&gt;AppModule -->
<g id="edge5" class="edge">
<title>HeaderComponent&#45;&gt;AppModule</title>
<path fill="none" stroke="#000000" d="M1051,-122.2396C1051,-137.5706 1051,-157 1051,-157 1051,-157 966.9142,-157 966.9142,-157"/>
<polygon fill="#000000" stroke="#000000" points="966.9142,-153.5001 956.9142,-157 966.9142,-160.5001 966.9142,-153.5001"/>
</g>
<!-- LoginComponent -->
<g id="node6" class="node">
<title>LoginComponent</title>
<polygon fill="#ffffb3" stroke="#000000" points="972.2758,-122 857.7242,-122 857.7242,-86 972.2758,-86 972.2758,-122"/>
<text text-anchor="middle" x="915" y="-99.8" font-family="Times,serif" font-size="14.00" fill="#000000">LoginComponent</text>
</g>
<!-- LoginComponent&#45;&gt;AppModule -->
<g id="edge6" class="edge">
<title>LoginComponent&#45;&gt;AppModule</title>
<path fill="none" stroke="#000000" d="M915,-122.1061C915,-122.1061 915,-140.991 915,-140.991"/>
<polygon fill="#000000" stroke="#000000" points="911.5001,-140.9909 915,-150.991 918.5001,-140.991 911.5001,-140.9909"/>
</g>
<!-- RegisterReactiveComponent -->
<g id="node7" class="node">
<title>RegisterReactiveComponent</title>
<polygon fill="#ffffb3" stroke="#000000" points="839.4608,-122 662.5392,-122 662.5392,-86 839.4608,-86 839.4608,-122"/>
<text text-anchor="middle" x="751" y="-99.8" font-family="Times,serif" font-size="14.00" fill="#000000">RegisterReactiveComponent</text>
</g>
<!-- RegisterReactiveComponent&#45;&gt;AppModule -->
<g id="edge7" class="edge">
<title>RegisterReactiveComponent&#45;&gt;AppModule</title>
<path fill="none" stroke="#000000" d="M751,-122.2396C751,-137.5706 751,-157 751,-157 751,-157 863.1915,-157 863.1915,-157"/>
<polygon fill="#000000" stroke="#000000" points="863.1916,-160.5001 873.1915,-157 863.1915,-153.5001 863.1916,-160.5001"/>
</g>
<!-- RegisterTemplateComponent -->
<g id="node8" class="node">
<title>RegisterTemplateComponent</title>
<polygon fill="#ffffb3" stroke="#000000" points="644.3529,-122 463.6471,-122 463.6471,-86 644.3529,-86 644.3529,-122"/>
<text text-anchor="middle" x="554" y="-99.8" font-family="Times,serif" font-size="14.00" fill="#000000">RegisterTemplateComponent</text>
</g>
<!-- RegisterTemplateComponent&#45;&gt;AppModule -->
<g id="edge8" class="edge">
<title>RegisterTemplateComponent&#45;&gt;AppModule</title>
<path fill="none" stroke="#000000" d="M554,-122.0225C554,-139.3734 554,-163 554,-163 554,-163 863.236,-163 863.236,-163"/>
<polygon fill="#000000" stroke="#000000" points="863.2361,-166.5001 873.236,-163 863.236,-159.5001 863.2361,-166.5001"/>
</g>
<!-- AppComponent  -->
<g id="node10" class="node">
<title>AppComponent </title>
<polygon fill="#80b1d3" stroke="#000000" points="969.439,-252 860.561,-252 860.561,-216 969.439,-216 969.439,-252"/>
<text text-anchor="middle" x="915" y="-229.8" font-family="Times,serif" font-size="14.00" fill="#000000">AppComponent </text>
</g>
<!-- AppModule&#45;&gt;AppComponent  -->
<g id="edge9" class="edge">
<title>AppModule&#45;&gt;AppComponent </title>
<path fill="none" stroke="#000000" stroke-dasharray="1,5" d="M915,-187.1061C915,-187.1061 915,-205.991 915,-205.991"/>
<polygon fill="#000000" stroke="#000000" points="911.5001,-205.9909 915,-215.991 918.5001,-205.991 911.5001,-205.9909"/>
</g>
<!-- AppService -->
<g id="node11" class="node">
<title>AppService</title>
<ellipse fill="#fdb462" stroke="#000000" cx="383" cy="-104" rx="56.7406" ry="18"/>
<text text-anchor="middle" x="383" y="-99.8" font-family="Times,serif" font-size="14.00" fill="#000000">AppService</text>
</g>
<!-- AppService&#45;&gt;AppModule -->
<g id="edge10" class="edge">
<title>AppService&#45;&gt;AppModule</title>
<path fill="none" stroke="#000000" d="M383,-122.1061C383,-141.3391 383,-169 383,-169 383,-169 863.2549,-169 863.2549,-169"/>
<polygon fill="#000000" stroke="#000000" points="863.2549,-172.5001 873.2549,-169 863.2548,-165.5001 863.2549,-172.5001"/>
</g>
<!-- AuthService -->
<g id="node12" class="node">
<title>AuthService</title>
<ellipse fill="#fdb462" stroke="#000000" cx="249" cy="-104" rx="59.1083" ry="18"/>
<text text-anchor="middle" x="249" y="-99.8" font-family="Times,serif" font-size="14.00" fill="#000000">AuthService</text>
</g>
<!-- AuthService&#45;&gt;AppModule -->
<g id="edge11" class="edge">
<title>AuthService&#45;&gt;AppModule</title>
<path fill="none" stroke="#000000" d="M249,-122.2843C249,-143.3211 249,-175 249,-175 249,-175 863.3387,-175 863.3387,-175"/>
<polygon fill="#000000" stroke="#000000" points="863.3388,-178.5001 873.3387,-175 863.3387,-171.5001 863.3388,-178.5001"/>
</g>
<!-- MessageService -->
<g id="node13" class="node">
<title>MessageService</title>
<ellipse fill="#fdb462" stroke="#000000" cx="98" cy="-104" rx="73.5522" ry="18"/>
<text text-anchor="middle" x="98" y="-99.8" font-family="Times,serif" font-size="14.00" fill="#000000">MessageService</text>
</g>
<!-- MessageService&#45;&gt;AppModule -->
<g id="edge12" class="edge">
<title>MessageService&#45;&gt;AppModule</title>
<path fill="none" stroke="#000000" d="M98,-122.2479C98,-145.0179 98,-181 98,-181 98,-181 863.0787,-181 863.0787,-181"/>
<polygon fill="#000000" stroke="#000000" points="863.0787,-184.5001 873.0787,-181 863.0787,-177.5001 863.0787,-184.5001"/>
</g>
</g>
</svg>
